<?xml version="1.0" encoding="utf-8"?>
<!-- Generator: Adobe Illustrator 24.1.2, SVG Export Plug-In . SVG Version: 6.00 Build 0)  -->
<svg version="1.1" xmlns="http://www.w3.org/2000/svg" xmlns:xlink="http://www.w3.org/1999/xlink" x="0px" y="0px"
	 viewBox="0 0 703.3 703.3" style="enable-background:new 0 0 703.3 703.3;" xml:space="preserve">
<style type="text/css">
	.st0{fill:#191919;stroke:#000000;stroke-miterlimit:10;}
	.st1{fill:none;stroke:#000000;stroke-width:2;stroke-miterlimit:10;}
	.st2{fill:#191919;}
	.st3{fill:none;stroke:#000000;stroke-width:0.5;stroke-miterlimit:10;}
</style>
<g id="Layer_1">
</g>
<g id="Watch">
	<path class="st0" d="M351.7,0.5C157.7,0.5,0.5,157.7,0.5,351.7c0,193.9,157.2,351.2,351.2,351.2s351.2-157.2,351.2-351.2
		C702.8,157.7,545.6,0.5,351.7,0.5z M351.7,679.3c-180.9,0-327.6-146.7-327.6-327.6S170.7,24.1,351.7,24.1s327.6,146.7,327.6,327.6
		S532.6,679.3,351.7,679.3z"/>
	<g>
		<rect x="346.4" y="48.2" width="10.5" height="42.5"/>
		<rect x="205.3" y="86" transform="matrix(0.866 -0.5 0.5 0.866 -25.4062 119.6341)" width="10.5" height="42.5"/>
		<rect x="102" y="189.3" transform="matrix(0.5 -0.866 0.866 0.5 -128.7177 198.1288)" width="10.5" height="42.5"/>
		<rect x="64.2" y="330.4" transform="matrix(4.466656e-11 -1 1 4.466656e-11 -282.2522 421.0745)" width="10.5" height="42.5"/>
		<rect x="102" y="471.5" transform="matrix(-0.5 -0.866 0.866 -0.5 -265.9296 832.0444)" width="10.5" height="42.5"/>
		<rect x="205.3" y="574.9" transform="matrix(-0.866 -0.5 0.5 -0.866 94.8174 1217.608)" width="10.5" height="42.5"/>
		<rect x="346.4" y="612.7" transform="matrix(-1 -8.994062e-11 8.994062e-11 -1 703.3267 1267.8311)" width="10.5" height="42.5"/>
		<rect x="487.6" y="574.9" transform="matrix(-0.866 0.5 -0.5 -0.866 1217.608 865.9448)" width="10.5" height="42.5"/>
		<rect x="590.9" y="471.5" transform="matrix(-0.5 0.866 -0.866 -0.5 1320.9196 222.9456)" width="10.5" height="42.5"/>
		<rect x="628.7" y="330.4" transform="matrix(-1.352147e-10 1 -1 -1.352147e-10 985.5789 -282.2522)" width="10.5" height="42.5"/>
		<rect x="590.9" y="189.3" transform="matrix(0.5 0.866 -0.866 0.5 480.381 -410.9699)" width="10.5" height="42.5"/>
		<rect x="487.6" y="86" transform="matrix(0.866 0.5 -0.5 0.866 119.6341 -232.0292)" width="10.5" height="42.5"/>
	</g>
	<g>
		<line class="st1" x1="351.7" y1="48.2" x2="351.7" y2="69.4"/>
		<line class="st1" x1="319.9" y1="49.8" x2="322.2" y2="71"/>
		<line class="st1" x1="288.6" y1="54.8" x2="293" y2="75.6"/>
		<line class="st1" x1="257.9" y1="63" x2="264.4" y2="83.2"/>
		<line class="st1" x1="228.2" y1="74.4" x2="236.9" y2="93.8"/>
		<line class="st1" x1="199.9" y1="88.8" x2="210.5" y2="107.2"/>
		<line class="st1" x1="173.3" y1="106.1" x2="185.8" y2="123.3"/>
		<line class="st1" x1="148.6" y1="126.1" x2="162.8" y2="141.9"/>
		<line class="st1" x1="126.1" y1="148.6" x2="141.9" y2="162.8"/>
		<line class="st1" x1="106.1" y1="173.3" x2="123.3" y2="185.8"/>
		<line class="st1" x1="88.8" y1="199.9" x2="107.2" y2="210.5"/>
		<line class="st1" x1="74.4" y1="228.2" x2="93.8" y2="236.9"/>
		<line class="st1" x1="63" y1="257.9" x2="83.2" y2="264.4"/>
		<line class="st1" x1="54.8" y1="288.6" x2="75.6" y2="293"/>
		<line class="st1" x1="49.8" y1="319.9" x2="71" y2="322.2"/>
		<line class="st1" x1="48.2" y1="351.7" x2="69.4" y2="351.7"/>
		<line class="st1" x1="49.8" y1="383.4" x2="71" y2="381.2"/>
		<line class="st1" x1="54.8" y1="414.8" x2="75.6" y2="410.3"/>
		<line class="st1" x1="63" y1="445.4" x2="83.2" y2="438.9"/>
		<line class="st1" x1="74.4" y1="475.1" x2="93.8" y2="466.5"/>
		<line class="st1" x1="88.8" y1="503.4" x2="107.2" y2="492.8"/>
		<line class="st1" x1="106.1" y1="530.1" x2="123.3" y2="517.6"/>
		<line class="st1" x1="126.1" y1="554.7" x2="141.9" y2="540.5"/>
		<line class="st1" x1="148.6" y1="577.2" x2="162.8" y2="561.4"/>
		<line class="st1" x1="173.3" y1="597.2" x2="185.8" y2="580"/>
		<line class="st1" x1="199.9" y1="614.5" x2="210.5" y2="596.1"/>
		<line class="st1" x1="228.2" y1="628.9" x2="236.9" y2="609.5"/>
		<line class="st1" x1="257.9" y1="640.3" x2="264.4" y2="620.1"/>
		<line class="st1" x1="288.6" y1="648.5" x2="293" y2="627.7"/>
		<line class="st1" x1="319.9" y1="653.5" x2="322.2" y2="632.4"/>
		<line class="st1" x1="351.7" y1="655.2" x2="351.7" y2="633.9"/>
		<line class="st1" x1="383.4" y1="653.5" x2="381.2" y2="632.4"/>
		<line class="st1" x1="414.8" y1="648.5" x2="410.3" y2="627.7"/>
		<line class="st1" x1="445.4" y1="640.3" x2="438.9" y2="620.1"/>
		<line class="st1" x1="475.1" y1="628.9" x2="466.5" y2="609.5"/>
		<line class="st1" x1="503.4" y1="614.5" x2="492.8" y2="596.1"/>
		<line class="st1" x1="530.1" y1="597.2" x2="517.6" y2="580"/>
		<line class="st1" x1="554.7" y1="577.2" x2="540.5" y2="561.4"/>
		<line class="st1" x1="577.2" y1="554.7" x2="561.4" y2="540.5"/>
		<line class="st1" x1="597.2" y1="530.1" x2="580" y2="517.6"/>
		<line class="st1" x1="614.5" y1="503.4" x2="596.1" y2="492.8"/>
		<line class="st1" x1="628.9" y1="475.1" x2="609.5" y2="466.5"/>
		<line class="st1" x1="640.3" y1="445.4" x2="620.1" y2="438.9"/>
		<line class="st1" x1="648.5" y1="414.8" x2="627.7" y2="410.3"/>
		<line class="st1" x1="653.5" y1="383.4" x2="632.4" y2="381.2"/>
		<line class="st1" x1="655.2" y1="351.7" x2="633.9" y2="351.7"/>
		<line class="st1" x1="653.5" y1="319.9" x2="632.4" y2="322.2"/>
		<line class="st1" x1="648.5" y1="288.6" x2="627.7" y2="293"/>
		<line class="st1" x1="640.3" y1="257.9" x2="620.1" y2="264.4"/>
		<line class="st1" x1="628.9" y1="228.2" x2="609.5" y2="236.9"/>
		<line class="st1" x1="614.5" y1="199.9" x2="596.1" y2="210.5"/>
		<line class="st1" x1="597.2" y1="173.3" x2="580" y2="185.8"/>
		<line class="st1" x1="577.2" y1="148.6" x2="561.4" y2="162.8"/>
		<line class="st1" x1="554.7" y1="126.1" x2="540.5" y2="141.9"/>
		<line class="st1" x1="530.1" y1="106.1" x2="517.6" y2="123.3"/>
		<line class="st1" x1="503.4" y1="88.8" x2="492.8" y2="107.2"/>
		<line class="st1" x1="475.1" y1="74.4" x2="466.5" y2="93.8"/>
		<line class="st1" x1="445.4" y1="63" x2="438.9" y2="83.2"/>
		<line class="st1" x1="414.8" y1="54.8" x2="410.3" y2="75.6"/>
		<line class="st1" x1="383.4" y1="49.8" x2="381.2" y2="71"/>
	</g>
	<g>
		<path d="M239,155.4l7.6,11.9l7.5,12l15.1,24l14.9,24l14.8,24.1c4.9,8,10,16,15,24c5,8,9.8,16.1,14.2,24.5
			c4.4,8.3,8.7,16.8,12.7,25.3c4,8.6,7.9,17.2,11.3,26.2c0.1,0.3,0,0.6-0.3,0.7c-0.2,0.1-0.5,0-0.6-0.2c-6.1-7.4-11.6-15.1-17-22.8
			c-5.4-7.8-10.5-15.7-15.5-23.7c-5-8-9.7-16.2-14.1-24.5c-4.4-8.4-8.7-16.7-13.2-25L277.8,231l-13.4-25l-13.2-25l-6.6-12.5L238,156
			c-0.1-0.3,0-0.6,0.2-0.7C238.5,155.1,238.8,155.2,239,155.4z"/>
	</g>
	<g>
		<path d="M351.7,351.5c7.2-0.5,14.3-0.9,21.5-1.2c7.2-0.3,14.3-0.5,21.5-0.6c14.3-0.3,28.7,0.2,43,0.4l43,0.6l43,0.8
			c0.1,0,0.2,0.1,0.2,0.2c0,0.1-0.1,0.2-0.2,0.2l-43,0.8l-43,0.6c-14.3,0.2-28.7,0.7-43,0.4c-7.2-0.1-14.3-0.3-21.5-0.6
			c-7.2-0.3-14.3-0.7-21.5-1.2c-0.1,0-0.2-0.1-0.2-0.2C351.5,351.5,351.6,351.5,351.7,351.5z"/>
	</g>
	<circle cx="351.7" cy="351.7" r="9.5"/>
	<path class="st2" d="M218,428.4c-23.2,0-42,18.8-42,42c0,23.2,18.8,42,42,42s42-18.8,42-42C260,447.2,241.2,428.4,218,428.4z
		 M218,509.5c-21.6,0-39.1-17.5-39.1-39.1s17.5-39.1,39.1-39.1s39.1,17.5,39.1,39.1S239.6,509.5,218,509.5z"/>
	<g>
		<rect x="217.4" y="434.1" width="1.3" height="5.1"/>
		<rect x="200.5" y="438.6" transform="matrix(0.866 -0.5 0.5 0.866 -193.6129 159.6866)" width="1.3" height="5.1"/>
		<rect x="188.2" y="450.9" transform="matrix(0.5 -0.866 0.866 0.5 -298.3023 390.2684)" width="1.3" height="5.1"/>
		<rect x="183.7" y="467.8" transform="matrix(4.364604e-11 -1 1 4.364604e-11 -286.0168 654.6444)" width="1.3" height="5.1"/>
		<rect x="188.2" y="484.7" transform="matrix(-0.5 -0.866 0.866 -0.5 -138.6718 894.3169)" width="1.3" height="5.1"/>
		<rect x="200.5" y="497" transform="matrix(-0.866 -0.5 0.5 -0.866 125.6279 1032.7242)" width="1.3" height="5.1"/>
		<rect x="217.4" y="501.5" transform="matrix(-1 -9.020130e-11 9.020130e-11 -1 436.0635 1008.097)" width="1.3" height="5.1"/>
		<rect x="234.3" y="497" transform="matrix(-0.866 0.5 -0.5 -0.866 688.0776 814.6925)" width="1.3" height="5.1"/>
		<rect x="246.6" y="484.7" transform="matrix(-0.5 0.866 -0.866 -0.5 792.767 516.6748)" width="1.3" height="5.1"/>
		<rect x="251.1" y="467.8" transform="matrix(-1.353017e-10 1 -1 -1.353017e-10 722.0803 218.5809)" width="1.3" height="5.1"/>
		<rect x="246.6" y="450.9" transform="matrix(0.5 0.866 -0.866 0.5 516.3341 12.6263)" width="1.3" height="5.1"/>
		<rect x="234.3" y="438.6" transform="matrix(0.866 0.5 -0.5 0.866 252.0344 -58.3451)" width="1.3" height="5.1"/>
	</g>
	<g>
		<line class="st3" x1="218" y1="434.1" x2="218" y2="436.6"/>
		<line class="st3" x1="214.2" y1="434.3" x2="214.5" y2="436.8"/>
		<line class="st3" x1="210.5" y1="434.9" x2="211" y2="437.3"/>
		<line class="st3" x1="206.8" y1="435.8" x2="207.6" y2="438.3"/>
		<line class="st3" x1="203.3" y1="437.2" x2="204.3" y2="439.5"/>
		<line class="st3" x1="199.9" y1="438.9" x2="201.2" y2="441.1"/>
		<line class="st3" x1="196.7" y1="441" x2="198.2" y2="443.1"/>
		<line class="st3" x1="193.8" y1="443.4" x2="195.5" y2="445.3"/>
		<line class="st3" x1="191.1" y1="446.1" x2="193" y2="447.8"/>
		<line class="st3" x1="188.7" y1="449" x2="190.8" y2="450.5"/>
		<line class="st3" x1="186.6" y1="452.2" x2="188.8" y2="453.5"/>
		<line class="st3" x1="184.9" y1="455.6" x2="187.2" y2="456.6"/>
		<line class="st3" x1="183.6" y1="459.1" x2="186" y2="459.9"/>
		<line class="st3" x1="182.6" y1="462.8" x2="185.1" y2="463.3"/>
		<line class="st3" x1="182" y1="466.5" x2="184.5" y2="466.8"/>
		<line class="st3" x1="181.8" y1="470.3" x2="184.3" y2="470.3"/>
		<line class="st3" x1="182" y1="474.1" x2="184.5" y2="473.9"/>
		<line class="st3" x1="182.6" y1="477.9" x2="185.1" y2="477.3"/>
		<line class="st3" x1="183.6" y1="481.5" x2="186" y2="480.8"/>
		<line class="st3" x1="184.9" y1="485.1" x2="187.2" y2="484"/>
		<line class="st3" x1="186.6" y1="488.5" x2="188.8" y2="487.2"/>
		<line class="st3" x1="188.7" y1="491.6" x2="190.8" y2="490.1"/>
		<line class="st3" x1="191.1" y1="494.6" x2="193" y2="492.9"/>
		<line class="st3" x1="193.8" y1="497.3" x2="195.5" y2="495.4"/>
		<line class="st3" x1="196.7" y1="499.7" x2="198.2" y2="497.6"/>
		<line class="st3" x1="199.9" y1="501.7" x2="201.2" y2="499.5"/>
		<line class="st3" x1="203.3" y1="503.5" x2="204.3" y2="501.1"/>
		<line class="st3" x1="206.8" y1="504.8" x2="207.6" y2="502.4"/>
		<line class="st3" x1="210.5" y1="505.8" x2="211" y2="503.3"/>
		<line class="st3" x1="214.2" y1="506.4" x2="214.5" y2="503.9"/>
		<line class="st3" x1="218" y1="506.6" x2="218" y2="504"/>
		<line class="st3" x1="221.8" y1="506.4" x2="221.6" y2="503.9"/>
		<line class="st3" x1="225.6" y1="505.8" x2="225" y2="503.3"/>
		<line class="st3" x1="229.2" y1="504.8" x2="228.5" y2="502.4"/>
		<line class="st3" x1="232.8" y1="503.5" x2="231.7" y2="501.1"/>
		<line class="st3" x1="236.2" y1="501.7" x2="234.9" y2="499.5"/>
		<line class="st3" x1="239.3" y1="499.7" x2="237.9" y2="497.6"/>
		<line class="st3" x1="242.3" y1="497.3" x2="240.6" y2="495.4"/>
		<line class="st3" x1="245" y1="494.6" x2="243.1" y2="492.9"/>
		<line class="st3" x1="247.4" y1="491.6" x2="245.3" y2="490.1"/>
		<line class="st3" x1="249.4" y1="488.5" x2="247.2" y2="487.2"/>
		<line class="st3" x1="251.2" y1="485.1" x2="248.8" y2="484"/>
		<line class="st3" x1="252.5" y1="481.5" x2="250.1" y2="480.8"/>
		<line class="st3" x1="253.5" y1="477.9" x2="251" y2="477.3"/>
		<line class="st3" x1="254.1" y1="474.1" x2="251.6" y2="473.9"/>
		<line class="st3" x1="254.3" y1="470.3" x2="251.7" y2="470.3"/>
		<line class="st3" x1="254.1" y1="466.5" x2="251.6" y2="466.8"/>
		<line class="st3" x1="253.5" y1="462.8" x2="251" y2="463.3"/>
		<line class="st3" x1="252.5" y1="459.1" x2="250.1" y2="459.9"/>
		<line class="st3" x1="251.2" y1="455.6" x2="248.8" y2="456.6"/>
		<line class="st3" x1="249.4" y1="452.2" x2="247.2" y2="453.5"/>
		<line class="st3" x1="247.4" y1="449" x2="245.3" y2="450.5"/>
		<line class="st3" x1="245" y1="446.1" x2="243.1" y2="447.8"/>
		<line class="st3" x1="242.3" y1="443.4" x2="240.6" y2="445.3"/>
		<line class="st3" x1="239.3" y1="441" x2="237.9" y2="443.1"/>
		<line class="st3" x1="236.2" y1="438.9" x2="234.9" y2="441.1"/>
		<line class="st3" x1="232.8" y1="437.2" x2="231.7" y2="439.5"/>
		<line class="st3" x1="229.2" y1="435.8" x2="228.5" y2="438.3"/>
		<line class="st3" x1="225.6" y1="434.9" x2="225" y2="437.3"/>
		<line class="st3" x1="221.8" y1="434.3" x2="221.6" y2="436.8"/>
	</g>
	<path class="st2" d="M346.4,412.7c-32.2,0-58.3,26.1-58.3,58.3c0,32.2,26.1,58.3,58.3,58.3s58.3-26.1,58.3-58.3
		C404.7,438.8,378.6,412.7,346.4,412.7z M346.4,525.3c-30,0-54.4-24.3-54.4-54.4s24.3-54.4,54.4-54.4c30,0,54.4,24.3,54.4,54.4
		S376.5,525.3,346.4,525.3z"/>
	<g>
		<rect x="345.6" y="420.6" width="1.7" height="7.1"/>
		<rect x="322.1" y="426.9" transform="matrix(0.866 -0.5 0.5 0.866 -171.9178 219.1641)" width="1.7" height="7.1"/>
		<rect x="305" y="444" transform="matrix(0.5 -0.866 0.866 0.5 -234.6445 488.6483)" width="1.7" height="7.1"/>
		<rect x="298.7" y="467.4" transform="matrix(4.397911e-11 -1 1 4.397911e-11 -171.3724 770.539)" width="1.7" height="7.1"/>
		<rect x="305" y="490.9" transform="matrix(-0.5 -0.866 0.866 -0.5 30.6445 1006.451)" width="1.7" height="7.1"/>
		<rect x="322.1" y="508" transform="matrix(-0.866 -0.5 0.5 -0.866 346.9757 1116.0247)" width="1.7" height="7.1"/>
		<rect x="345.6" y="514.3" transform="matrix(-1 -9.057700e-11 9.057700e-11 -1 692.8605 1035.6053)" width="1.7" height="7.1"/>
		<rect x="369" y="508" transform="matrix(-0.866 0.5 -0.5 -0.866 945.9197 769.5944)" width="1.7" height="7.1"/>
		<rect x="386.1" y="490.9" transform="matrix(-0.5 0.866 -0.866 -0.5 1008.6464 406.4161)" width="1.7" height="7.1"/>
		<rect x="392.4" y="467.4" transform="matrix(-1.361277e-10 1 -1 -1.361277e-10 864.233 77.6785)" width="1.7" height="7.1"/>
		<rect x="386.1" y="444" transform="matrix(0.5 0.866 -0.866 0.5 581.0748 -111.3865)" width="1.7" height="7.1"/>
		<rect x="369" y="426.9" transform="matrix(0.866 0.5 -0.5 0.866 264.7435 -127.2662)" width="1.7" height="7.1"/>
	</g>
	<g>
		<line class="st3" x1="346.4" y1="420.6" x2="346.4" y2="424.1"/>
		<line class="st3" x1="341.2" y1="420.9" x2="341.5" y2="424.4"/>
		<line class="st3" x1="336" y1="421.7" x2="336.7" y2="425.1"/>
		<line class="st3" x1="330.9" y1="423" x2="332" y2="426.4"/>
		<line class="st3" x1="325.9" y1="424.9" x2="327.4" y2="428.2"/>
		<line class="st3" x1="321.2" y1="427.3" x2="323" y2="430.4"/>
		<line class="st3" x1="316.8" y1="430.2" x2="318.9" y2="433.1"/>
		<line class="st3" x1="312.7" y1="433.5" x2="315.1" y2="436.1"/>
		<line class="st3" x1="309" y1="437.2" x2="311.6" y2="439.6"/>
		<line class="st3" x1="305.7" y1="441.3" x2="308.5" y2="443.4"/>
		<line class="st3" x1="302.8" y1="445.8" x2="305.9" y2="447.5"/>
		<line class="st3" x1="300.4" y1="450.5" x2="303.6" y2="451.9"/>
		<line class="st3" x1="298.5" y1="455.4" x2="301.9" y2="456.5"/>
		<line class="st3" x1="297.2" y1="460.5" x2="300.6" y2="461.2"/>
		<line class="st3" x1="296.3" y1="465.7" x2="299.8" y2="466.1"/>
		<line class="st3" x1="296.1" y1="471" x2="299.6" y2="471"/>
		<line class="st3" x1="296.3" y1="476.2" x2="299.8" y2="475.9"/>
		<line class="st3" x1="297.2" y1="481.4" x2="300.6" y2="480.7"/>
		<line class="st3" x1="298.5" y1="486.5" x2="301.9" y2="485.4"/>
		<line class="st3" x1="300.4" y1="491.4" x2="303.6" y2="490"/>
		<line class="st3" x1="302.8" y1="496.1" x2="305.9" y2="494.4"/>
		<line class="st3" x1="305.7" y1="500.6" x2="308.5" y2="498.5"/>
		<line class="st3" x1="309" y1="504.7" x2="311.6" y2="502.3"/>
		<line class="st3" x1="312.7" y1="508.4" x2="315.1" y2="505.8"/>
		<line class="st3" x1="316.8" y1="511.7" x2="318.9" y2="508.9"/>
		<line class="st3" x1="321.2" y1="514.6" x2="323" y2="511.5"/>
		<line class="st3" x1="325.9" y1="517" x2="327.4" y2="513.8"/>
		<line class="st3" x1="330.9" y1="518.9" x2="332" y2="515.5"/>
		<line class="st3" x1="336" y1="520.2" x2="336.7" y2="516.8"/>
		<line class="st3" x1="341.2" y1="521.1" x2="341.5" y2="517.5"/>
		<line class="st3" x1="346.4" y1="521.3" x2="346.4" y2="517.8"/>
		<line class="st3" x1="351.7" y1="521.1" x2="351.3" y2="517.5"/>
		<line class="st3" x1="356.9" y1="520.2" x2="356.2" y2="516.8"/>
		<line class="st3" x1="362" y1="518.9" x2="360.9" y2="515.5"/>
		<line class="st3" x1="366.9" y1="517" x2="365.5" y2="513.8"/>
		<line class="st3" x1="371.6" y1="514.6" x2="369.9" y2="511.5"/>
		<line class="st3" x1="376" y1="511.7" x2="374" y2="508.9"/>
		<line class="st3" x1="380.1" y1="508.4" x2="377.8" y2="505.8"/>
		<line class="st3" x1="383.9" y1="504.7" x2="381.2" y2="502.3"/>
		<line class="st3" x1="387.2" y1="500.6" x2="384.3" y2="498.5"/>
		<line class="st3" x1="390.1" y1="496.1" x2="387" y2="494.4"/>
		<line class="st3" x1="392.4" y1="491.4" x2="389.2" y2="490"/>
		<line class="st3" x1="394.3" y1="486.5" x2="391" y2="485.4"/>
		<line class="st3" x1="395.7" y1="481.4" x2="392.3" y2="480.7"/>
		<line class="st3" x1="396.5" y1="476.2" x2="393" y2="475.9"/>
		<line class="st3" x1="396.8" y1="471" x2="393.3" y2="471"/>
		<line class="st3" x1="396.5" y1="465.7" x2="393" y2="466.1"/>
		<line class="st3" x1="395.7" y1="460.5" x2="392.3" y2="461.2"/>
		<line class="st3" x1="394.3" y1="455.4" x2="391" y2="456.5"/>
		<line class="st3" x1="392.4" y1="450.5" x2="389.2" y2="451.9"/>
		<line class="st3" x1="390.1" y1="445.8" x2="387" y2="447.5"/>
		<line class="st3" x1="387.2" y1="441.3" x2="384.3" y2="443.4"/>
		<line class="st3" x1="383.9" y1="437.2" x2="381.2" y2="439.6"/>
		<line class="st3" x1="380.1" y1="433.5" x2="377.8" y2="436.1"/>
		<line class="st3" x1="376" y1="430.2" x2="374" y2="433.1"/>
		<line class="st3" x1="371.6" y1="427.3" x2="369.9" y2="430.4"/>
		<line class="st3" x1="366.9" y1="424.9" x2="365.5" y2="428.2"/>
		<line class="st3" x1="362" y1="423" x2="360.9" y2="426.4"/>
		<line class="st3" x1="356.9" y1="421.7" x2="356.2" y2="425.1"/>
		<line class="st3" x1="351.7" y1="420.9" x2="351.3" y2="424.4"/>
	</g>
	<path class="st2" d="M474.8,429.6c-23.2,0-42,18.8-42,42c0,23.2,18.8,42,42,42c23.2,0,42-18.8,42-42
		C516.8,448.4,498,429.6,474.8,429.6z M474.8,510.7c-21.6,0-39.1-17.5-39.1-39.1c0-21.6,17.5-39.1,39.1-39.1S514,450,514,471.6
		C514,493.2,496.4,510.7,474.8,510.7z"/>
	<g>
		<rect x="474.2" y="435.3" width="1.3" height="5.1"/>
		<rect x="457.3" y="439.8" transform="matrix(0.866 -0.5 0.5 0.866 -159.8338 288.2527)" width="1.3" height="5.1"/>
		<rect x="445" y="452.2" transform="matrix(0.5 -0.866 0.866 0.5 -170.9866 613.2863)" width="1.3" height="5.1"/>
		<rect x="440.5" y="469" transform="matrix(4.364604e-11 -1 1 4.364604e-11 -30.47 912.6917)" width="1.3" height="5.1"/>
		<rect x="445" y="485.9" transform="matrix(-0.5 -0.866 0.866 -0.5 245.441 1118.5851)" width="1.3" height="5.1"/>
		<rect x="457.3" y="498.2" transform="matrix(-0.866 -0.5 0.5 -0.866 604.1926 1163.4558)" width="1.3" height="5.1"/>
		<rect x="474.2" y="502.8" transform="matrix(-1 -9.020130e-11 9.020130e-11 -1 949.6577 1010.5976)" width="1.3" height="5.1"/>
		<rect x="491.1" y="498.2" transform="matrix(-0.866 0.5 -0.5 -0.866 1167.8926 688.627)" width="1.3" height="5.1"/>
		<rect x="503.4" y="485.9" transform="matrix(-0.5 0.866 -0.866 -0.5 1179.0454 296.1575)" width="1.3" height="5.1"/>
		<rect x="507.9" y="469" transform="matrix(-1.338469e-10 1 -1 -1.338469e-10 980.1276 -36.9659)" width="1.3" height="5.1"/>
		<rect x="503.4" y="452.2" transform="matrix(0.5 0.866 -0.866 0.5 645.8154 -209.1413)" width="1.3" height="5.1"/>
		<rect x="491.1" y="439.8" transform="matrix(0.866 0.5 -0.5 0.866 287.0638 -186.5762)" width="1.3" height="5.1"/>
	</g>
	<g>
		<line class="st3" x1="474.8" y1="435.3" x2="474.8" y2="437.9"/>
		<line class="st3" x1="471" y1="435.5" x2="471.3" y2="438"/>
		<line class="st3" x1="467.3" y1="436.1" x2="467.8" y2="438.6"/>
		<line class="st3" x1="463.6" y1="437.1" x2="464.4" y2="439.5"/>
		<line class="st3" x1="460.1" y1="438.5" x2="461.1" y2="440.8"/>
		<line class="st3" x1="456.7" y1="440.2" x2="458" y2="442.4"/>
		<line class="st3" x1="453.5" y1="442.2" x2="455" y2="444.3"/>
		<line class="st3" x1="450.6" y1="444.6" x2="452.3" y2="446.5"/>
		<line class="st3" x1="447.9" y1="447.3" x2="449.8" y2="449"/>
		<line class="st3" x1="445.5" y1="450.3" x2="447.6" y2="451.8"/>
		<line class="st3" x1="443.4" y1="453.5" x2="445.6" y2="454.7"/>
		<line class="st3" x1="441.7" y1="456.8" x2="444" y2="457.9"/>
		<line class="st3" x1="440.3" y1="460.4" x2="442.8" y2="461.2"/>
		<line class="st3" x1="439.4" y1="464" x2="441.8" y2="464.6"/>
		<line class="st3" x1="438.8" y1="467.8" x2="441.3" y2="468.1"/>
		<line class="st3" x1="438.6" y1="471.6" x2="441.1" y2="471.6"/>
		<line class="st3" x1="438.8" y1="475.4" x2="441.3" y2="475.1"/>
		<line class="st3" x1="439.4" y1="479.1" x2="441.8" y2="478.6"/>
		<line class="st3" x1="440.3" y1="482.8" x2="442.8" y2="482"/>
		<line class="st3" x1="441.7" y1="486.3" x2="444" y2="485.3"/>
		<line class="st3" x1="443.4" y1="489.7" x2="445.6" y2="488.4"/>
		<line class="st3" x1="445.5" y1="492.9" x2="447.6" y2="491.4"/>
		<line class="st3" x1="447.9" y1="495.8" x2="449.8" y2="494.1"/>
		<line class="st3" x1="450.6" y1="498.5" x2="452.3" y2="496.6"/>
		<line class="st3" x1="453.5" y1="500.9" x2="455" y2="498.9"/>
		<line class="st3" x1="456.7" y1="503" x2="458" y2="500.8"/>
		<line class="st3" x1="460.1" y1="504.7" x2="461.1" y2="502.4"/>
		<line class="st3" x1="463.6" y1="506.1" x2="464.4" y2="503.6"/>
		<line class="st3" x1="467.3" y1="507" x2="467.8" y2="504.6"/>
		<line class="st3" x1="471" y1="507.6" x2="471.3" y2="505.1"/>
		<line class="st3" x1="474.8" y1="507.8" x2="474.8" y2="505.3"/>
		<line class="st3" x1="478.6" y1="507.6" x2="478.4" y2="505.1"/>
		<line class="st3" x1="482.4" y1="507" x2="481.8" y2="504.6"/>
		<line class="st3" x1="486" y1="506.1" x2="485.2" y2="503.6"/>
		<line class="st3" x1="489.6" y1="504.7" x2="488.5" y2="502.4"/>
		<line class="st3" x1="493" y1="503" x2="491.7" y2="500.8"/>
		<line class="st3" x1="496.1" y1="500.9" x2="494.6" y2="498.9"/>
		<line class="st3" x1="499.1" y1="498.5" x2="497.4" y2="496.6"/>
		<line class="st3" x1="501.8" y1="495.8" x2="499.9" y2="494.1"/>
		<line class="st3" x1="504.2" y1="492.9" x2="502.1" y2="491.4"/>
		<line class="st3" x1="506.2" y1="489.7" x2="504" y2="488.4"/>
		<line class="st3" x1="508" y1="486.3" x2="505.6" y2="485.3"/>
		<line class="st3" x1="509.3" y1="482.8" x2="506.9" y2="482"/>
		<line class="st3" x1="510.3" y1="479.1" x2="507.8" y2="478.6"/>
		<line class="st3" x1="510.9" y1="475.4" x2="508.4" y2="475.1"/>
		<line class="st3" x1="511.1" y1="471.6" x2="508.5" y2="471.6"/>
		<line class="st3" x1="510.9" y1="467.8" x2="508.4" y2="468.1"/>
		<line class="st3" x1="510.3" y1="464" x2="507.8" y2="464.6"/>
		<line class="st3" x1="509.3" y1="460.4" x2="506.9" y2="461.2"/>
		<line class="st3" x1="508" y1="456.8" x2="505.6" y2="457.9"/>
		<line class="st3" x1="506.2" y1="453.5" x2="504" y2="454.7"/>
		<line class="st3" x1="504.2" y1="450.3" x2="502.1" y2="451.8"/>
		<line class="st3" x1="501.8" y1="447.3" x2="499.9" y2="449"/>
		<line class="st3" x1="499.1" y1="444.6" x2="497.4" y2="446.5"/>
		<line class="st3" x1="496.1" y1="442.2" x2="494.6" y2="444.3"/>
		<line class="st3" x1="493" y1="440.2" x2="491.7" y2="442.4"/>
		<line class="st3" x1="489.6" y1="438.5" x2="488.5" y2="440.8"/>
		<line class="st3" x1="486" y1="437.1" x2="485.2" y2="439.5"/>
		<line class="st3" x1="482.4" y1="436.1" x2="481.8" y2="438.6"/>
		<line class="st3" x1="478.6" y1="435.5" x2="478.4" y2="438"/>
	</g>
</g>
</svg>
